# xmcd CD database file
#
# Track frame offsets:
#	150
#	16775
#	32402
#	53554
#	67449
#	83654
#	101786
#	118952
#	138489
#	155443
#	174619
#	189232
#
# Disc length: 2727 seconds
#
# Revision: 0
# Processed by: cddbd v1.5.1PL0 Copyright (c) Steve Scherf et al.
# Submitted via: CDex 1.50
#
DISCID=9d0aa50c
DTITLE=Montana Highway - Freizeit-Desperados
DYEAR=1997
DGENRE=Country
TTITLE0=Süden
TTITLE1=Falsche Liebe
TTITLE2=Amerika-Träume
TTITLE3=Freizeitdesperasdos
TTITLE4=Würstchen und Steaks
TTITLE5=Penner
TTITLE6=Biker
TTITLE7=Cowboy-Schorsch
TTITLE8=Freitag
TTITLE9=Gigolo
TTITLE10=Trucker
TTITLE11=Heimfahrt
EXTD=YEAR: 1997
EXTT0=
EXTT1=
EXTT2=
EXTT3=
EXTT4=
EXTT5=
EXTT6=
EXTT7=
EXTT8=
EXTT9=
EXTT10=
EXTT11=
PLAYORDER=
